<svg xmlns="http://www.w3.org/2000/svg" xmlns:xlink="http://www.w3.org/1999/xlink" width="148" zoomAndPan="magnify" viewBox="0 0 110.88 30.000001" height="40" preserveAspectRatio="xMidYMid meet" version="1.0"><defs><clipPath id="c5c9b51d25"><path d="M 1.730469 5.445312 L 20 5.445312 L 20 23.589844 L 1.730469 23.589844 Z M 1.730469 5.445312 " clip-rule="nonzero"/></clipPath></defs><path fill="#ffffff" d="M 28.585938 10.015625 L 32.378906 10.015625 C 32.921875 10.015625 33.417969 10.128906 33.875 10.355469 C 34.332031 10.578125 34.691406 10.886719 34.953125 11.277344 C 35.214844 11.664062 35.347656 12.089844 35.347656 12.546875 C 35.347656 13.035156 35.226562 13.457031 34.988281 13.816406 C 34.746094 14.171875 34.433594 14.445312 34.046875 14.636719 L 34.046875 14.742188 C 34.550781 14.925781 34.953125 15.210938 35.25 15.605469 C 35.546875 15.996094 35.699219 16.46875 35.699219 17.019531 C 35.699219 17.554688 35.554688 18.023438 35.269531 18.433594 C 34.976562 18.859375 34.59375 19.175781 34.121094 19.382812 C 33.636719 19.605469 33.101562 19.714844 32.515625 19.714844 L 28.585938 19.714844 Z M 32.242188 13.972656 C 32.640625 13.972656 32.957031 13.859375 33.199219 13.640625 C 33.4375 13.417969 33.558594 13.140625 33.558594 12.804688 C 33.558594 12.480469 33.441406 12.207031 33.210938 11.984375 C 32.980469 11.765625 32.675781 11.652344 32.296875 11.652344 L 30.414062 11.652344 L 30.414062 13.972656 Z M 32.445312 18.050781 C 32.890625 18.050781 33.234375 17.933594 33.484375 17.703125 C 33.730469 17.472656 33.855469 17.171875 33.855469 16.804688 C 33.855469 16.433594 33.730469 16.128906 33.476562 15.894531 C 33.222656 15.660156 32.863281 15.542969 32.390625 15.542969 L 30.414062 15.542969 L 30.414062 18.050781 Z M 41.828125 19.933594 C 40.878906 19.933594 40.019531 19.710938 39.246094 19.261719 C 38.472656 18.816406 37.863281 18.207031 37.425781 17.425781 C 36.984375 16.648438 36.761719 15.796875 36.761719 14.867188 C 36.761719 13.933594 36.984375 13.082031 37.425781 12.304688 C 37.863281 11.527344 38.472656 10.914062 39.246094 10.46875 C 40.019531 10.023438 40.878906 9.796875 41.828125 9.796875 C 42.777344 9.796875 43.636719 10.023438 44.410156 10.46875 C 45.1875 10.914062 45.792969 11.527344 46.230469 12.304688 C 46.675781 13.082031 46.898438 13.933594 46.898438 14.867188 C 46.898438 15.796875 46.675781 16.648438 46.230469 17.425781 C 45.792969 18.207031 45.1875 18.816406 44.410156 19.261719 C 43.636719 19.710938 42.777344 19.933594 41.828125 19.933594 Z M 41.828125 18.199219 C 42.414062 18.203125 42.957031 18.0625 43.46875 17.777344 C 43.96875 17.496094 44.359375 17.105469 44.640625 16.601562 C 44.925781 16.09375 45.066406 15.515625 45.066406 14.867188 C 45.066406 14.214844 44.925781 13.636719 44.640625 13.132812 C 44.359375 12.628906 43.96875 12.234375 43.46875 11.953125 C 42.957031 11.667969 42.414062 11.527344 41.828125 11.53125 C 41.246094 11.527344 40.703125 11.664062 40.195312 11.953125 C 39.695312 12.234375 39.308594 12.628906 39.03125 13.132812 C 38.746094 13.636719 38.605469 14.214844 38.605469 14.867188 C 38.605469 15.515625 38.746094 16.09375 39.03125 16.601562 C 39.308594 17.101562 39.695312 17.496094 40.195312 17.777344 C 40.703125 18.066406 41.246094 18.203125 41.828125 18.199219 Z M 52.972656 19.933594 C 52.023438 19.933594 51.164062 19.710938 50.390625 19.261719 C 49.617188 18.816406 49.007812 18.207031 48.570312 17.425781 C 48.125 16.648438 47.90625 15.796875 47.90625 14.867188 C 47.90625 13.933594 48.125 13.082031 48.570312 12.304688 C 49.007812 11.527344 49.617188 10.914062 50.390625 10.46875 C 51.164062 10.023438 52.023438 9.796875 52.972656 9.796875 C 53.921875 9.796875 54.78125 10.023438 55.554688 10.46875 C 56.328125 10.914062 56.9375 11.527344 57.375 12.304688 C 57.816406 13.082031 58.039062 13.933594 58.039062 14.867188 C 58.039062 15.796875 57.816406 16.648438 57.375 17.425781 C 56.9375 18.207031 56.328125 18.816406 55.554688 19.261719 C 54.78125 19.710938 53.921875 19.933594 52.972656 19.933594 Z M 52.972656 18.199219 C 53.554688 18.203125 54.101562 18.0625 54.613281 17.777344 C 55.113281 17.496094 55.503906 17.105469 55.785156 16.601562 C 56.066406 16.09375 56.210938 15.515625 56.210938 14.867188 C 56.210938 14.214844 56.066406 13.636719 55.785156 13.132812 C 55.503906 12.628906 55.113281 12.234375 54.613281 11.953125 C 54.101562 11.667969 53.554688 11.527344 52.972656 11.53125 C 52.390625 11.527344 51.847656 11.664062 51.339844 11.953125 C 50.839844 12.234375 50.453125 12.628906 50.175781 13.132812 C 49.890625 13.636719 49.746094 14.214844 49.746094 14.867188 C 49.746094 15.515625 49.890625 16.09375 50.175781 16.601562 C 50.453125 17.101562 50.839844 17.496094 51.339844 17.777344 C 51.847656 18.066406 52.390625 18.203125 52.972656 18.199219 Z M 59.671875 10.015625 L 61.5 10.015625 L 61.5 14.175781 L 61.609375 14.175781 L 65.160156 10.015625 L 67.367188 10.015625 L 67.367188 10.125 L 63.859375 14.132812 L 67.734375 19.609375 L 67.734375 19.714844 L 65.5 19.714844 L 62.597656 15.582031 L 61.5 16.871094 L 61.5 19.714844 L 59.671875 19.714844 Z M 69.796875 9.796875 L 72.152344 9.796875 L 74.726562 16.613281 L 74.835938 16.613281 L 77.410156 9.796875 L 79.78125 9.796875 L 79.78125 19.5 L 77.964844 19.5 L 77.964844 14.714844 L 78.074219 13.105469 L 77.964844 13.105469 L 75.5 19.5 L 74.074219 19.5 L 71.597656 13.105469 L 71.488281 13.105469 L 71.597656 14.714844 L 71.597656 19.5 L 69.796875 19.5 Z M 84.890625 9.796875 L 86.992188 9.796875 L 90.636719 19.5 L 88.617188 19.5 L 87.804688 17.183594 L 84.09375 17.183594 L 83.28125 19.5 L 81.261719 19.5 Z M 87.210938 15.503906 L 86.355469 13.0625 L 86.003906 11.898438 L 85.894531 11.898438 L 85.542969 13.0625 L 84.675781 15.503906 Z M 92.132812 9.796875 L 95.667969 9.796875 C 96.300781 9.796875 96.863281 9.929688 97.355469 10.191406 C 97.847656 10.453125 98.226562 10.816406 98.5 11.28125 C 98.769531 11.746094 98.90625 12.273438 98.90625 12.859375 C 98.90625 13.484375 98.710938 14.035156 98.316406 14.519531 C 97.921875 15.007812 97.425781 15.359375 96.832031 15.570312 L 96.820312 15.664062 L 99.421875 19.390625 L 99.421875 19.5 L 97.320312 19.5 L 94.8125 15.855469 L 93.960938 15.855469 L 93.960938 19.5 L 92.132812 19.5 Z M 95.652344 14.175781 C 96.070312 14.175781 96.410156 14.046875 96.671875 13.796875 C 96.933594 13.542969 97.0625 13.222656 97.0625 12.832031 C 97.0625 12.460938 96.9375 12.148438 96.691406 11.886719 C 96.441406 11.625 96.105469 11.492188 95.679688 11.492188 L 93.960938 11.492188 L 93.960938 14.175781 Z M 100.902344 9.796875 L 102.730469 9.796875 L 102.730469 13.957031 L 102.839844 13.957031 L 106.390625 9.796875 L 108.597656 9.796875 L 108.597656 9.90625 L 105.089844 13.917969 L 108.964844 19.390625 L 108.964844 19.5 L 106.726562 19.5 L 103.828125 15.367188 L 102.730469 16.652344 L 102.730469 19.5 L 100.902344 19.5 Z M 100.902344 9.796875 " fill-opacity="1" fill-rule="nonzero"/><g clip-path="url(#c5c9b51d25)"><path fill="#5267df" d="M 19.875 14.515625 C 19.875 15.113281 19.816406 15.703125 19.699219 16.285156 C 19.585938 16.871094 19.414062 17.4375 19.183594 17.988281 C 18.957031 18.539062 18.675781 19.0625 18.347656 19.554688 C 18.015625 20.050781 17.640625 20.511719 17.21875 20.929688 C 16.796875 21.351562 16.339844 21.730469 15.84375 22.058594 C 15.347656 22.390625 14.824219 22.671875 14.273438 22.898438 C 13.722656 23.125 13.15625 23.296875 12.574219 23.414062 C 11.988281 23.53125 11.398438 23.589844 10.804688 23.589844 C 10.207031 23.589844 9.617188 23.53125 9.03125 23.414062 C 8.449219 23.296875 7.882812 23.125 7.332031 22.898438 C 6.78125 22.671875 6.257812 22.390625 5.761719 22.058594 C 5.265625 21.730469 4.808594 21.351562 4.386719 20.929688 C 3.964844 20.511719 3.589844 20.050781 3.257812 19.554688 C 2.929688 19.0625 2.648438 18.539062 2.421875 17.988281 C 2.191406 17.4375 2.019531 16.871094 1.90625 16.285156 C 1.789062 15.703125 1.730469 15.113281 1.730469 14.515625 C 1.730469 13.921875 1.789062 13.332031 1.90625 12.746094 C 2.019531 12.160156 2.191406 11.59375 2.421875 11.042969 C 2.648438 10.492188 2.929688 9.972656 3.257812 9.476562 C 3.589844 8.980469 3.964844 8.523438 4.386719 8.101562 C 4.808594 7.679688 5.265625 7.304688 5.761719 6.972656 C 6.257812 6.640625 6.78125 6.363281 7.332031 6.132812 C 7.882812 5.90625 8.449219 5.734375 9.03125 5.617188 C 9.617188 5.5 10.207031 5.445312 10.804688 5.445312 C 11.398438 5.445312 11.988281 5.5 12.574219 5.617188 C 13.15625 5.734375 13.722656 5.90625 14.273438 6.132812 C 14.824219 6.363281 15.347656 6.640625 15.84375 6.972656 C 16.339844 7.304688 16.796875 7.679688 17.21875 8.101562 C 17.640625 8.523438 18.015625 8.980469 18.347656 9.476562 C 18.675781 9.972656 18.957031 10.492188 19.183594 11.042969 C 19.414062 11.59375 19.585938 12.160156 19.699219 12.746094 C 19.816406 13.332031 19.875 13.921875 19.875 14.515625 Z M 19.875 14.515625 " fill-opacity="1" fill-rule="nonzero"/></g><path fill="#ffffff" d="M 8.261719 11.976562 L 8.261719 19.234375 L 10.832031 16.738281 L 13.398438 19.234375 L 13.398438 11.976562 C 13.398438 11.785156 13.363281 11.597656 13.289062 11.421875 C 13.214844 11.242188 13.109375 11.085938 12.976562 10.949219 C 12.839844 10.8125 12.679688 10.707031 12.503906 10.632812 C 12.324219 10.5625 12.140625 10.523438 11.949219 10.523438 L 9.714844 10.523438 C 9.523438 10.523438 9.335938 10.5625 9.160156 10.632812 C 8.980469 10.707031 8.824219 10.8125 8.6875 10.949219 C 8.550781 11.085938 8.445312 11.242188 8.375 11.421875 C 8.300781 11.597656 8.261719 11.785156 8.261719 11.976562 Z M 8.261719 11.976562 " fill-opacity="1" fill-rule="evenodd"/></svg>